<mxfile host="app.diagrams.net" modified="2022-09-10T16:26:59.875Z" agent="5.0 (Windows NT 10.0; Win64; x64) AppleWebKit/537.36 (KHTML, like Gecko) Chrome/105.0.0.0 Safari/537.36" etag="lIuwhalSAgKjxtQE9peV" version="14.7.3" type="github">
  <diagram id="C5RBs43oDa-KdzZeNtuy" name="Page-1">
    <mxGraphModel dx="1422" dy="762" grid="1" gridSize="10" guides="1" tooltips="1" connect="1" arrows="1" fold="1" page="1" pageScale="1" pageWidth="827" pageHeight="1169" math="0" shadow="0">
      <root>
        <mxCell id="WIyWlLk6GJQsqaUBKTNV-0" />
        <mxCell id="WIyWlLk6GJQsqaUBKTNV-1" parent="WIyWlLk6GJQsqaUBKTNV-0" />
        <mxCell id="w46rc9Ggta0nKSejpY7C-11" value="No" style="edgeStyle=orthogonalEdgeStyle;rounded=0;orthogonalLoop=1;jettySize=auto;html=1;exitX=1;exitY=0.5;exitDx=0;exitDy=0;entryX=0;entryY=0.5;entryDx=0;entryDy=0;" parent="WIyWlLk6GJQsqaUBKTNV-1" source="WIyWlLk6GJQsqaUBKTNV-6" target="w46rc9Ggta0nKSejpY7C-2" edge="1">
          <mxGeometry relative="1" as="geometry" />
        </mxCell>
        <mxCell id="w46rc9Ggta0nKSejpY7C-30" value="Yes" style="edgeStyle=orthogonalEdgeStyle;rounded=0;orthogonalLoop=1;jettySize=auto;html=1;exitX=0.5;exitY=1;exitDx=0;exitDy=0;entryX=0.5;entryY=0;entryDx=0;entryDy=0;" parent="WIyWlLk6GJQsqaUBKTNV-1" source="WIyWlLk6GJQsqaUBKTNV-6" target="w46rc9Ggta0nKSejpY7C-29" edge="1">
          <mxGeometry relative="1" as="geometry" />
        </mxCell>
        <mxCell id="WIyWlLk6GJQsqaUBKTNV-6" value="&lt;font style=&quot;font-size: 10px&quot;&gt;Continue Button pressed?&lt;/font&gt;" style="rhombus;whiteSpace=wrap;html=1;shadow=0;fontFamily=Helvetica;fontSize=12;align=center;strokeWidth=1;spacing=6;spacingTop=-4;fillColor=#fff2cc;strokeColor=#d6b656;" parent="WIyWlLk6GJQsqaUBKTNV-1" vertex="1">
          <mxGeometry x="175" y="240" width="90" height="80" as="geometry" />
        </mxCell>
        <mxCell id="w46rc9Ggta0nKSejpY7C-8" style="edgeStyle=orthogonalEdgeStyle;rounded=0;orthogonalLoop=1;jettySize=auto;html=1;exitX=1;exitY=0.5;exitDx=0;exitDy=0;" parent="WIyWlLk6GJQsqaUBKTNV-1" source="w46rc9Ggta0nKSejpY7C-0" target="w46rc9Ggta0nKSejpY7C-7" edge="1">
          <mxGeometry relative="1" as="geometry" />
        </mxCell>
        <mxCell id="w46rc9Ggta0nKSejpY7C-0" value="Pause Menu opened" style="ellipse;whiteSpace=wrap;html=1;aspect=fixed;fillColor=#d5e8d4;strokeColor=#82b366;" parent="WIyWlLk6GJQsqaUBKTNV-1" vertex="1">
          <mxGeometry x="40" y="60" width="80" height="80" as="geometry" />
        </mxCell>
        <mxCell id="w46rc9Ggta0nKSejpY7C-12" value="No" style="edgeStyle=orthogonalEdgeStyle;rounded=0;orthogonalLoop=1;jettySize=auto;html=1;exitX=1;exitY=0.5;exitDx=0;exitDy=0;entryX=0;entryY=0.5;entryDx=0;entryDy=0;" parent="WIyWlLk6GJQsqaUBKTNV-1" source="w46rc9Ggta0nKSejpY7C-2" target="w46rc9Ggta0nKSejpY7C-3" edge="1">
          <mxGeometry relative="1" as="geometry" />
        </mxCell>
        <mxCell id="w46rc9Ggta0nKSejpY7C-20" value="Yes" style="edgeStyle=orthogonalEdgeStyle;rounded=0;orthogonalLoop=1;jettySize=auto;html=1;exitX=0.5;exitY=1;exitDx=0;exitDy=0;entryX=0.5;entryY=0;entryDx=0;entryDy=0;" parent="WIyWlLk6GJQsqaUBKTNV-1" source="w46rc9Ggta0nKSejpY7C-2" target="gnK7By7rFAybI0cnnryE-4" edge="1">
          <mxGeometry relative="1" as="geometry">
            <mxPoint x="355" y="360.0000000000001" as="targetPoint" />
          </mxGeometry>
        </mxCell>
        <mxCell id="w46rc9Ggta0nKSejpY7C-2" value="&lt;span style=&quot;font-size: 10px&quot;&gt;Settings Button pressed?&lt;/span&gt;" style="rhombus;whiteSpace=wrap;html=1;shadow=0;fontFamily=Helvetica;fontSize=12;align=center;strokeWidth=1;spacing=6;spacingTop=-4;fillColor=#fff2cc;strokeColor=#d6b656;" parent="WIyWlLk6GJQsqaUBKTNV-1" vertex="1">
          <mxGeometry x="310" y="240" width="90" height="80" as="geometry" />
        </mxCell>
        <mxCell id="w46rc9Ggta0nKSejpY7C-19" value="Yes" style="edgeStyle=orthogonalEdgeStyle;rounded=0;orthogonalLoop=1;jettySize=auto;html=1;exitX=0.5;exitY=1;exitDx=0;exitDy=0;entryX=0.5;entryY=0;entryDx=0;entryDy=0;" parent="WIyWlLk6GJQsqaUBKTNV-1" source="w46rc9Ggta0nKSejpY7C-3" target="gnK7By7rFAybI0cnnryE-1" edge="1">
          <mxGeometry relative="1" as="geometry">
            <mxPoint x="485" y="360" as="targetPoint" />
          </mxGeometry>
        </mxCell>
        <mxCell id="gnK7By7rFAybI0cnnryE-5" value="No" style="edgeStyle=orthogonalEdgeStyle;rounded=0;orthogonalLoop=1;jettySize=auto;html=1;exitX=0.5;exitY=0;exitDx=0;exitDy=0;entryX=1;entryY=0.75;entryDx=0;entryDy=0;" parent="WIyWlLk6GJQsqaUBKTNV-1" source="w46rc9Ggta0nKSejpY7C-3" target="w46rc9Ggta0nKSejpY7C-31" edge="1">
          <mxGeometry relative="1" as="geometry" />
        </mxCell>
        <mxCell id="w46rc9Ggta0nKSejpY7C-3" value="&lt;span style=&quot;font-size: 10px&quot;&gt;Quit Button pressed?&lt;/span&gt;" style="rhombus;whiteSpace=wrap;html=1;shadow=0;fontFamily=Helvetica;fontSize=12;align=center;strokeWidth=1;spacing=6;spacingTop=-4;fillColor=#fff2cc;strokeColor=#d6b656;" parent="WIyWlLk6GJQsqaUBKTNV-1" vertex="1">
          <mxGeometry x="440" y="240" width="90" height="80" as="geometry" />
        </mxCell>
        <mxCell id="w46rc9Ggta0nKSejpY7C-33" style="edgeStyle=orthogonalEdgeStyle;rounded=0;orthogonalLoop=1;jettySize=auto;html=1;exitX=0.5;exitY=1;exitDx=0;exitDy=0;" parent="WIyWlLk6GJQsqaUBKTNV-1" source="w46rc9Ggta0nKSejpY7C-7" target="w46rc9Ggta0nKSejpY7C-31" edge="1">
          <mxGeometry relative="1" as="geometry" />
        </mxCell>
        <mxCell id="w46rc9Ggta0nKSejpY7C-7" value="Pause menu loads" style="rounded=1;whiteSpace=wrap;html=1;fillColor=#dae8fc;strokeColor=#6c8ebf;" parent="WIyWlLk6GJQsqaUBKTNV-1" vertex="1">
          <mxGeometry x="160" y="80" width="120" height="40" as="geometry" />
        </mxCell>
        <mxCell id="w46rc9Ggta0nKSejpY7C-25" style="edgeStyle=orthogonalEdgeStyle;rounded=0;orthogonalLoop=1;jettySize=auto;html=1;exitX=0.5;exitY=1;exitDx=0;exitDy=0;entryX=0.5;entryY=0;entryDx=0;entryDy=0;" parent="WIyWlLk6GJQsqaUBKTNV-1" source="gnK7By7rFAybI0cnnryE-4" target="gnK7By7rFAybI0cnnryE-32" edge="1">
          <mxGeometry relative="1" as="geometry">
            <mxPoint x="355" y="400.0000000000001" as="sourcePoint" />
            <mxPoint x="355" y="440.0000000000001" as="targetPoint" />
          </mxGeometry>
        </mxCell>
        <mxCell id="w46rc9Ggta0nKSejpY7C-29" value="Gameplay scene resumes" style="ellipse;whiteSpace=wrap;html=1;aspect=fixed;fillColor=#f8cecc;strokeColor=#b85450;" parent="WIyWlLk6GJQsqaUBKTNV-1" vertex="1">
          <mxGeometry x="180" y="360" width="80" height="80" as="geometry" />
        </mxCell>
        <mxCell id="w46rc9Ggta0nKSejpY7C-32" style="edgeStyle=orthogonalEdgeStyle;rounded=0;orthogonalLoop=1;jettySize=auto;html=1;exitX=0.5;exitY=1;exitDx=0;exitDy=0;entryX=0.5;entryY=0;entryDx=0;entryDy=0;" parent="WIyWlLk6GJQsqaUBKTNV-1" source="w46rc9Ggta0nKSejpY7C-31" target="WIyWlLk6GJQsqaUBKTNV-6" edge="1">
          <mxGeometry relative="1" as="geometry" />
        </mxCell>
        <mxCell id="w46rc9Ggta0nKSejpY7C-31" value="Wait for player input" style="rounded=1;whiteSpace=wrap;html=1;fillColor=#dae8fc;strokeColor=#6c8ebf;" parent="WIyWlLk6GJQsqaUBKTNV-1" vertex="1">
          <mxGeometry x="160" y="160" width="120" height="40" as="geometry" />
        </mxCell>
        <mxCell id="gnK7By7rFAybI0cnnryE-0" value="Home Scene opens" style="ellipse;whiteSpace=wrap;html=1;aspect=fixed;fillColor=#f8cecc;strokeColor=#b85450;" parent="WIyWlLk6GJQsqaUBKTNV-1" vertex="1">
          <mxGeometry x="445" y="480" width="80" height="80" as="geometry" />
        </mxCell>
        <mxCell id="gnK7By7rFAybI0cnnryE-3" value="Yes" style="edgeStyle=orthogonalEdgeStyle;rounded=0;orthogonalLoop=1;jettySize=auto;html=1;exitX=0.5;exitY=1;exitDx=0;exitDy=0;entryX=0.5;entryY=0;entryDx=0;entryDy=0;" parent="WIyWlLk6GJQsqaUBKTNV-1" source="gnK7By7rFAybI0cnnryE-1" target="gnK7By7rFAybI0cnnryE-0" edge="1">
          <mxGeometry relative="1" as="geometry" />
        </mxCell>
        <mxCell id="gnK7By7rFAybI0cnnryE-6" value="No" style="edgeStyle=orthogonalEdgeStyle;rounded=0;orthogonalLoop=1;jettySize=auto;html=1;exitX=1;exitY=0.5;exitDx=0;exitDy=0;entryX=1;entryY=0.25;entryDx=0;entryDy=0;" parent="WIyWlLk6GJQsqaUBKTNV-1" source="gnK7By7rFAybI0cnnryE-1" target="w46rc9Ggta0nKSejpY7C-31" edge="1">
          <mxGeometry relative="1" as="geometry" />
        </mxCell>
        <mxCell id="gnK7By7rFAybI0cnnryE-1" value="&lt;span style=&quot;font-size: 10px&quot;&gt;Player confirms?&lt;/span&gt;" style="rhombus;whiteSpace=wrap;html=1;shadow=0;fontFamily=Helvetica;fontSize=12;align=center;strokeWidth=1;spacing=6;spacingTop=-4;fillColor=#fff2cc;strokeColor=#d6b656;" parent="WIyWlLk6GJQsqaUBKTNV-1" vertex="1">
          <mxGeometry x="440" y="360" width="90" height="80" as="geometry" />
        </mxCell>
        <mxCell id="gnK7By7rFAybI0cnnryE-4" value="Settings submenu opens" style="rounded=1;whiteSpace=wrap;html=1;fillColor=#dae8fc;strokeColor=#6c8ebf;" parent="WIyWlLk6GJQsqaUBKTNV-1" vertex="1">
          <mxGeometry x="295" y="360" width="120" height="40" as="geometry" />
        </mxCell>
        <mxCell id="gnK7By7rFAybI0cnnryE-10" value="No" style="edgeStyle=orthogonalEdgeStyle;rounded=0;orthogonalLoop=1;jettySize=auto;html=1;exitX=1;exitY=0.5;exitDx=0;exitDy=0;entryX=0;entryY=0.5;entryDx=0;entryDy=0;" parent="WIyWlLk6GJQsqaUBKTNV-1" source="gnK7By7rFAybI0cnnryE-12" target="gnK7By7rFAybI0cnnryE-15" edge="1">
          <mxGeometry relative="1" as="geometry" />
        </mxCell>
        <mxCell id="gnK7By7rFAybI0cnnryE-11" value="Yes" style="edgeStyle=orthogonalEdgeStyle;rounded=0;orthogonalLoop=1;jettySize=auto;html=1;exitX=0.5;exitY=1;exitDx=0;exitDy=0;" parent="WIyWlLk6GJQsqaUBKTNV-1" source="gnK7By7rFAybI0cnnryE-12" target="gnK7By7rFAybI0cnnryE-20" edge="1">
          <mxGeometry relative="1" as="geometry">
            <mxPoint x="230" y="825" as="targetPoint" />
          </mxGeometry>
        </mxCell>
        <mxCell id="gnK7By7rFAybI0cnnryE-12" value="&lt;span style=&quot;font-size: 10px&quot;&gt;Sound FX &lt;br&gt;slider adjusted?&lt;/span&gt;" style="rhombus;whiteSpace=wrap;html=1;shadow=0;fontFamily=Helvetica;fontSize=12;align=center;strokeWidth=1;spacing=6;spacingTop=-4;fillColor=#fff2cc;strokeColor=#d6b656;" parent="WIyWlLk6GJQsqaUBKTNV-1" vertex="1">
          <mxGeometry x="180" y="665" width="90" height="80" as="geometry" />
        </mxCell>
        <mxCell id="gnK7By7rFAybI0cnnryE-13" value="No" style="edgeStyle=orthogonalEdgeStyle;rounded=0;orthogonalLoop=1;jettySize=auto;html=1;exitX=1;exitY=0.5;exitDx=0;exitDy=0;entryX=0;entryY=0.5;entryDx=0;entryDy=0;" parent="WIyWlLk6GJQsqaUBKTNV-1" source="gnK7By7rFAybI0cnnryE-15" target="gnK7By7rFAybI0cnnryE-18" edge="1">
          <mxGeometry relative="1" as="geometry" />
        </mxCell>
        <mxCell id="gnK7By7rFAybI0cnnryE-14" style="edgeStyle=orthogonalEdgeStyle;rounded=0;orthogonalLoop=1;jettySize=auto;html=1;exitX=0.5;exitY=1;exitDx=0;exitDy=0;" parent="WIyWlLk6GJQsqaUBKTNV-1" source="gnK7By7rFAybI0cnnryE-15" target="gnK7By7rFAybI0cnnryE-38" edge="1">
          <mxGeometry relative="1" as="geometry" />
        </mxCell>
        <mxCell id="gnK7By7rFAybI0cnnryE-15" value="&lt;span style=&quot;font-size: 10px&quot;&gt;Music slider adjusted?&lt;/span&gt;" style="rhombus;whiteSpace=wrap;html=1;shadow=0;fontFamily=Helvetica;fontSize=12;align=center;strokeWidth=1;spacing=6;spacingTop=-4;fillColor=#fff2cc;strokeColor=#d6b656;" parent="WIyWlLk6GJQsqaUBKTNV-1" vertex="1">
          <mxGeometry x="310" y="665" width="90" height="80" as="geometry" />
        </mxCell>
        <mxCell id="gnK7By7rFAybI0cnnryE-16" value="No" style="edgeStyle=orthogonalEdgeStyle;rounded=0;orthogonalLoop=1;jettySize=auto;html=1;exitX=1;exitY=0.5;exitDx=0;exitDy=0;entryX=0;entryY=0.5;entryDx=0;entryDy=0;" parent="WIyWlLk6GJQsqaUBKTNV-1" source="gnK7By7rFAybI0cnnryE-18" target="gnK7By7rFAybI0cnnryE-25" edge="1">
          <mxGeometry relative="1" as="geometry" />
        </mxCell>
        <mxCell id="gnK7By7rFAybI0cnnryE-17" style="edgeStyle=orthogonalEdgeStyle;rounded=0;orthogonalLoop=1;jettySize=auto;html=1;exitX=0.5;exitY=1;exitDx=0;exitDy=0;entryX=0.5;entryY=0;entryDx=0;entryDy=0;" parent="WIyWlLk6GJQsqaUBKTNV-1" source="gnK7By7rFAybI0cnnryE-18" target="gnK7By7rFAybI0cnnryE-40" edge="1">
          <mxGeometry relative="1" as="geometry" />
        </mxCell>
        <mxCell id="gnK7By7rFAybI0cnnryE-18" value="&lt;span style=&quot;font-size: 10px&quot;&gt;Brightness &lt;br&gt;slider adjusted?&lt;/span&gt;" style="rhombus;whiteSpace=wrap;html=1;shadow=0;fontFamily=Helvetica;fontSize=12;align=center;strokeWidth=1;spacing=6;spacingTop=-4;fillColor=#fff2cc;strokeColor=#d6b656;" parent="WIyWlLk6GJQsqaUBKTNV-1" vertex="1">
          <mxGeometry x="440" y="665" width="90" height="80" as="geometry" />
        </mxCell>
        <mxCell id="gnK7By7rFAybI0cnnryE-19" style="edgeStyle=orthogonalEdgeStyle;rounded=0;orthogonalLoop=1;jettySize=auto;html=1;exitX=0.5;exitY=1;exitDx=0;exitDy=0;entryX=0;entryY=0.25;entryDx=0;entryDy=0;" parent="WIyWlLk6GJQsqaUBKTNV-1" source="gnK7By7rFAybI0cnnryE-20" target="gnK7By7rFAybI0cnnryE-32" edge="1">
          <mxGeometry relative="1" as="geometry">
            <Array as="points">
              <mxPoint x="225" y="865" />
              <mxPoint x="150" y="865" />
              <mxPoint x="150" y="595" />
            </Array>
          </mxGeometry>
        </mxCell>
        <mxCell id="gnK7By7rFAybI0cnnryE-20" value="Sound FX volume preference updated" style="rounded=1;whiteSpace=wrap;html=1;fillColor=#dae8fc;strokeColor=#6c8ebf;" parent="WIyWlLk6GJQsqaUBKTNV-1" vertex="1">
          <mxGeometry x="165" y="785" width="120" height="40" as="geometry" />
        </mxCell>
        <mxCell id="gnK7By7rFAybI0cnnryE-21" style="edgeStyle=orthogonalEdgeStyle;rounded=0;orthogonalLoop=1;jettySize=auto;html=1;exitX=0;exitY=0.75;exitDx=0;exitDy=0;entryX=0.5;entryY=0;entryDx=0;entryDy=0;" parent="WIyWlLk6GJQsqaUBKTNV-1" source="gnK7By7rFAybI0cnnryE-32" target="gnK7By7rFAybI0cnnryE-12" edge="1">
          <mxGeometry relative="1" as="geometry">
            <mxPoint x="225" y="665" as="targetPoint" />
          </mxGeometry>
        </mxCell>
        <mxCell id="gnK7By7rFAybI0cnnryE-23" value="No" style="edgeStyle=orthogonalEdgeStyle;rounded=0;orthogonalLoop=1;jettySize=auto;html=1;" parent="WIyWlLk6GJQsqaUBKTNV-1" source="gnK7By7rFAybI0cnnryE-25" target="gnK7By7rFAybI0cnnryE-31" edge="1">
          <mxGeometry relative="1" as="geometry" />
        </mxCell>
        <mxCell id="gnK7By7rFAybI0cnnryE-24" style="edgeStyle=orthogonalEdgeStyle;rounded=0;orthogonalLoop=1;jettySize=auto;html=1;exitX=0.5;exitY=1;exitDx=0;exitDy=0;entryX=0.5;entryY=0;entryDx=0;entryDy=0;" parent="WIyWlLk6GJQsqaUBKTNV-1" source="gnK7By7rFAybI0cnnryE-25" target="gnK7By7rFAybI0cnnryE-42" edge="1">
          <mxGeometry relative="1" as="geometry" />
        </mxCell>
        <mxCell id="gnK7By7rFAybI0cnnryE-25" value="&lt;span style=&quot;font-size: 10px&quot;&gt;Save Button pressed?&lt;/span&gt;" style="rhombus;whiteSpace=wrap;html=1;shadow=0;fontFamily=Helvetica;fontSize=12;align=center;strokeWidth=1;spacing=6;spacingTop=-4;fillColor=#fff2cc;strokeColor=#d6b656;" parent="WIyWlLk6GJQsqaUBKTNV-1" vertex="1">
          <mxGeometry x="575" y="665" width="90" height="80" as="geometry" />
        </mxCell>
        <mxCell id="gnK7By7rFAybI0cnnryE-29" value="No" style="edgeStyle=orthogonalEdgeStyle;rounded=0;orthogonalLoop=1;jettySize=auto;html=1;exitX=0.5;exitY=0;exitDx=0;exitDy=0;entryX=1;entryY=0.5;entryDx=0;entryDy=0;" parent="WIyWlLk6GJQsqaUBKTNV-1" source="gnK7By7rFAybI0cnnryE-31" target="gnK7By7rFAybI0cnnryE-32" edge="1">
          <mxGeometry relative="1" as="geometry">
            <mxPoint x="420" y="605" as="targetPoint" />
          </mxGeometry>
        </mxCell>
        <mxCell id="gnK7By7rFAybI0cnnryE-44" value="Yes" style="edgeStyle=orthogonalEdgeStyle;rounded=0;orthogonalLoop=1;jettySize=auto;html=1;exitX=1;exitY=0.5;exitDx=0;exitDy=0;entryX=1;entryY=0.5;entryDx=0;entryDy=0;" parent="WIyWlLk6GJQsqaUBKTNV-1" source="gnK7By7rFAybI0cnnryE-31" target="w46rc9Ggta0nKSejpY7C-7" edge="1">
          <mxGeometry relative="1" as="geometry" />
        </mxCell>
        <mxCell id="gnK7By7rFAybI0cnnryE-31" value="&lt;font style=&quot;font-size: 10px&quot;&gt;Back&lt;br&gt;Button &lt;br&gt;pressed?&lt;/font&gt;" style="rhombus;whiteSpace=wrap;html=1;shadow=0;fontFamily=Helvetica;fontSize=12;align=center;strokeWidth=1;spacing=6;spacingTop=-4;fillColor=#fff2cc;strokeColor=#d6b656;" parent="WIyWlLk6GJQsqaUBKTNV-1" vertex="1">
          <mxGeometry x="715" y="665" width="90" height="80" as="geometry" />
        </mxCell>
        <mxCell id="gnK7By7rFAybI0cnnryE-32" value="Wait for player input" style="rounded=1;whiteSpace=wrap;html=1;fillColor=#dae8fc;strokeColor=#6c8ebf;" parent="WIyWlLk6GJQsqaUBKTNV-1" vertex="1">
          <mxGeometry x="295" y="585" width="120" height="40" as="geometry" />
        </mxCell>
        <mxCell id="gnK7By7rFAybI0cnnryE-37" style="edgeStyle=orthogonalEdgeStyle;rounded=0;orthogonalLoop=1;jettySize=auto;html=1;exitX=0.5;exitY=1;exitDx=0;exitDy=0;entryX=0;entryY=0.25;entryDx=0;entryDy=0;" parent="WIyWlLk6GJQsqaUBKTNV-1" source="gnK7By7rFAybI0cnnryE-38" target="gnK7By7rFAybI0cnnryE-32" edge="1">
          <mxGeometry relative="1" as="geometry">
            <mxPoint x="300" y="595" as="targetPoint" />
            <Array as="points">
              <mxPoint x="355" y="865" />
              <mxPoint x="150" y="865" />
              <mxPoint x="150" y="595" />
            </Array>
          </mxGeometry>
        </mxCell>
        <mxCell id="gnK7By7rFAybI0cnnryE-38" value="Music volume preference updated" style="rounded=1;whiteSpace=wrap;html=1;fillColor=#dae8fc;strokeColor=#6c8ebf;" parent="WIyWlLk6GJQsqaUBKTNV-1" vertex="1">
          <mxGeometry x="295" y="785" width="120" height="40" as="geometry" />
        </mxCell>
        <mxCell id="gnK7By7rFAybI0cnnryE-39" style="edgeStyle=orthogonalEdgeStyle;rounded=0;orthogonalLoop=1;jettySize=auto;html=1;exitX=0.5;exitY=1;exitDx=0;exitDy=0;entryX=0;entryY=0.25;entryDx=0;entryDy=0;" parent="WIyWlLk6GJQsqaUBKTNV-1" source="gnK7By7rFAybI0cnnryE-40" target="gnK7By7rFAybI0cnnryE-32" edge="1">
          <mxGeometry relative="1" as="geometry">
            <mxPoint x="300" y="595" as="targetPoint" />
            <Array as="points">
              <mxPoint x="485" y="865" />
              <mxPoint x="150" y="865" />
              <mxPoint x="150" y="595" />
            </Array>
          </mxGeometry>
        </mxCell>
        <mxCell id="gnK7By7rFAybI0cnnryE-40" value="Brightness preference updated" style="rounded=1;whiteSpace=wrap;html=1;fillColor=#dae8fc;strokeColor=#6c8ebf;" parent="WIyWlLk6GJQsqaUBKTNV-1" vertex="1">
          <mxGeometry x="425" y="785" width="120" height="40" as="geometry" />
        </mxCell>
        <mxCell id="gnK7By7rFAybI0cnnryE-41" style="edgeStyle=orthogonalEdgeStyle;rounded=0;orthogonalLoop=1;jettySize=auto;html=1;exitX=0.5;exitY=1;exitDx=0;exitDy=0;entryX=0;entryY=0.25;entryDx=0;entryDy=0;" parent="WIyWlLk6GJQsqaUBKTNV-1" source="gnK7By7rFAybI0cnnryE-42" target="gnK7By7rFAybI0cnnryE-32" edge="1">
          <mxGeometry relative="1" as="geometry">
            <mxPoint x="300" y="595" as="targetPoint" />
            <Array as="points">
              <mxPoint x="620" y="865" />
              <mxPoint x="150" y="865" />
              <mxPoint x="150" y="595" />
            </Array>
          </mxGeometry>
        </mxCell>
        <mxCell id="gnK7By7rFAybI0cnnryE-42" value="Current preferences are saved" style="rounded=1;whiteSpace=wrap;html=1;fillColor=#dae8fc;strokeColor=#6c8ebf;" parent="WIyWlLk6GJQsqaUBKTNV-1" vertex="1">
          <mxGeometry x="560" y="785" width="120" height="40" as="geometry" />
        </mxCell>
      </root>
    </mxGraphModel>
  </diagram>
</mxfile>
